<?xml version="1.0" standalone="no"?>
<!DOCTYPE svg PUBLIC "-//W3C//DTD SVG 20010904//EN"
 "http://www.w3.org/TR/2001/REC-SVG-20010904/DTD/svg10.dtd">
<svg version="1.0" xmlns="http://www.w3.org/2000/svg"
 width="512.000000pt" height="512.000000pt" viewBox="0 0 512.000000 512.000000"
 preserveAspectRatio="xMidYMid meet">
<metadata>
Created by potrace 1.14, written by Peter Selinger 2001-2017
</metadata>
<g transform="translate(0.000000,512.000000) scale(0.100000,-0.100000)"
fill="#000000" stroke="none">
<path d="M1940 5100 c-219 -46 -386 -136 -541 -290 -205 -205 -311 -456 -311
-740 -1 -155 14 -221 58 -265 102 -102 267 -14 247 132 -3 26 -5 89 -5 140 2
280 168 540 422 665 101 50 186 70 305 74 272 9 507 -114 659 -346 84 -127
120 -256 117 -415 -1 -55 -2 -122 -3 -149 -1 -110 112 -176 211 -124 52 28 79
73 87 144 44 393 -111 756 -420 986 -126 94 -302 170 -448 194 -89 15 -295 12
-378 -6z"/>
<path d="M2021 4494 c-177 -48 -309 -199 -329 -377 -4 -34 -7 -578 -7 -1209 1
-632 -1 -1148 -4 -1148 -2 0 -54 51 -115 113 -118 121 -167 156 -256 181 -264
76 -526 -86 -572 -353 -14 -84 1 -202 35 -266 22 -42 74 -111 117 -156 14 -15
77 -82 140 -150 63 -67 131 -139 150 -160 49 -51 257 -273 303 -323 398 -428
472 -500 576 -555 46 -24 125 -54 175 -67 l91 -24 720 3 c396 2 732 6 748 10
257 68 468 254 547 482 45 129 46 147 45 1040 l-1 850 -22 67 c-63 184 -238
308 -436 308 -36 0 -80 -9 -171 -35 -15 -5 -25 2 -38 24 -31 53 -117 130 -182
162 -113 55 -282 62 -375 14 -27 -14 -28 -13 -40 15 -17 42 -108 131 -166 162
-95 52 -236 70 -336 43 l-28 -7 -1 468 c0 258 -2 478 -3 489 -24 192 -152 346
-331 398 -67 19 -168 20 -234 1z m179 -300 c32 -16 64 -51 78 -89 9 -22 11
-268 10 -955 -3 -909 -3 -926 17 -959 11 -19 31 -42 45 -53 63 -46 165 -28
210 39 25 36 25 38 30 319 l5 283 30 31 c73 76 208 55 248 -39 6 -16 11 -128
12 -288 2 -236 4 -264 21 -294 57 -97 181 -104 250 -14 28 37 28 37 30 205 1
145 4 173 20 201 31 53 68 74 129 74 61 0 98 -21 130 -75 17 -29 19 -55 21
-196 1 -139 4 -167 20 -195 31 -53 68 -74 129 -74 93 0 144 58 151 172 7 113
55 167 148 167 65 1 101 -21 131 -80 20 -39 21 -53 20 -874 -1 -812 -2 -837
-22 -890 -55 -150 -169 -256 -318 -295 -88 -23 -1352 -23 -1440 0 -122 32
-160 63 -405 325 -69 74 -138 148 -153 164 -15 16 -78 84 -140 150 -62 66
-152 163 -202 215 -368 390 -375 398 -375 453 0 46 28 102 65 126 58 40 150
28 203 -27 9 -9 91 -95 182 -190 241 -254 279 -290 314 -299 65 -18 142 14
174 71 15 30 17 131 18 1412 1 1492 -2 1409 51 1457 41 38 112 47 163 22z"/>
</g>
</svg>
